<?xml version="1.0" encoding="UTF-8" standalone="no"?>
<svg xmlns="http://www.w3.org/2000/svg" class="card" face="1B" height="3.5in" preserveAspectRatio="none" viewBox="-120 -168 240 336" width="2.5in"><rect width="239" height="335" x="-119.5" y="-167.5" rx="12" ry="12" fill="#ccdbf0" stroke="black"></rect><rect width="216.095" height="313.967" x="-108.047" y="-156.983" fill="black"></rect><path d="M0,0v1h1v1h-1v1h-1v1v1h-1v-1v-1h-1v-1h-1v-1v-1h1h1v1h-1M-2,1v1h1v-1v-1M-2,0v-1h-1h-1h-1h-1v1h-1v-1v-1v-1v-1v-1v-1v-1h-1h-1v1h1v1v1h-1h-1h-1v1v1v1h1v1h1v-1h1v-1h-1v-1h1M-9,-3h-1v1M-8,-1v1v1h-1h-1v1h1v1h-1v1h-1v1h1v1h1v-1h1v1h1v1v1h-1v-1h-1h-1v1h-1v1v1h-1v-1v-1v-1h1v-1h-1v-1h-1h-1h-1h-1v1h1v1h-1v1h1v1v1v1h-1h-1v1v1h1v1h1v-1h1h1v1v1v1h1v-1h1v-1v-1v-1h-1h-1v-1h1h1h1v-1v-1h1v-1M-9,9v1v1v1h-1v1v1v1v1h1v1v1v1v1h1v1v1h-1v-1h-1h-1v-1v-1h1v1M-10,19v-1v-1h-1v1h-1v-1h-1v1v1v1h-1v-1h-1h-1v-1v-1h1h1v1h-1M-14,17v-1h-1v-1h-1v1h-1v-1v-1M-17,16v1v1v1v1h1h1v1v1h1v1h-1h-1v-1h-1v-1h1M-17,22v1v1h1h1v1h1v-1h1v-1h1h1h1h1h1v1h1v1h-1h-1v-1h-1v1h-1v-1h-1v1h-1M-7,25h1h1v-1h-1v-1h1v-1v-1h-1v1h-1v1M-7,22v-1v-1v-1v-1h1h1h1v1h-1h-1v1h1h1h1v1v1v1h-1v1v1h1v-1h1v-1v-1v-1v-1h1v1v1v1h1v1v1h1h1h1h1h1v-1h1h1v1h-1M7,25h1v-1v-1v-1v-1v-1h1h1v-1v-1h1v1h1h1v1h-1v1h-1h-1v1h1v1h-1h-1v1v1h1v-1h1v1h1v-1v-1h1v-1h1v1v1h-1v1h1h1v-1h1v1h1v-1v-1h-1v-1h-1v1M15,22v-1h1h1v1M17,21v-1v-1v-1h-1v-1v-1h-1v1h-1v1h-1v-1h-1v1M12,17h-1v-1h-1v1h-1v1h-1v-1h-1v1v1v1h-1v1h-1h-1v1v1h1v-1h1h1v-1M7,22v1h-1M4,23v1h-1h-1v-1h1v-1v-1h-1h-1h-1v1h1v1v1M1,22h1M0,21v-1v-1v-1h-1v1h-1h-1v-1h1v-1v-1h1h1h1v1h1v-1h1v-1v-1v-1h1h1v1h1v-1v-1v-1h1h1v-1h-1h-1h-1v1v1h-1v-1v-1v-1h-1h-1v1v1v1h1v-1v-1M2,12v1v1h-1h-1v-1v-1h-1v-1v-1h1h1v1v1v1M1,11h-1M1,10v-1h-1v-1h1v-1h1v-1v-1h1v-1h-1v-1h-1v1v1v1h-1v-1v-1M0,6h-1h-1h-1v-1v-1h-1h-1v-1v-1h-1v-1h1v-1M-6,1h-1v1v1h1v1v1v1h1v-1h1v1v1h-1h-1v1v1h1v-1h1h1h1v-1h-1M-2,7h1v1v1h-1h-1h-1v1h1v1h-1h-1v1h1v1v1h-1v-1h-1h-1h-1v1h1h1v1h1h1v1h-1h-1v1h1h1h1v-1v-1v-1v-1v-1h1v-1v-1M-2,12v1h1v1h-1v1h1h1h1h1M-6,17h-1h-1v1v1M-8,17v-1h1v-1h-1h-1v-1v-1M-8,13v-1v-1h1v-1h1h1M-6,10v1v1h-1M-7,10h-1v-1h1M-1,7h1M-6,5h-1v-1h-1v-1v-1M-8,4h-1M-5,3h1M2,3h1v-1h1v1h1h1v1h-1h-1v1h1h1v1h-1v1h1v1h-1h-1v-1h-1v1h-1M3,7v-1h1M5,8v1h1h1v-1h1h1h1h1v1v1h1v-1h1h1v1h1v-1v-1h1v1h1v-1v-1v-1v-1v-1h-1h-1v-1v-1h-1h-1v1v1v1h1v-1v-1M14,5v1h-1h-1v1h-1h-1v-1h1v-1h-1h-1M11,5h1v-1v-1v-1v-1h1h1h1h1v-1h-1h-1h-1v-1v-1v-1h-1v1h-1v1v1h1v-1M11,-2v-1M12,-3v-1h1h1v1h1v-1h1h1v-1v-1v-1v-1v-1h-1v-1h1M17,-4v1h-1v1h-1v1h-1v-1M15,-1h1h1v1v1v1v1h-1v-1M17,-1v-1M12,7h1v1h-1M13,8h1v-1h1h1v-1h-1v-1h1M17,9v1h-1v1h-1v1v1h1v1v1h-1h-1v1h-1h-1v-1v-1h1v-1h-1v-1v-1h-1v1h-1v1h1v1h-1v1h-1v-1h-1h-1v-1h1v-1h1v1M9,12v-1h1v-1v-1h-1h-1M9,9v1M8,12h-1M7,14v1h-1h-1v1h-1v-1v-1M4,16v1h1v1h1v-1v-1h1h1v-1M8,16h1M6,18v1h-1h-1v-1h-1v-1M3,18h-1v1h1v1h-1h-1v-1v-1M3,20h1h1M10,15h1M12,11h1v-1M13,11h1v1v1v1h1M14,12h-1M13,14v1M16,15h1v1v1M17,15v-1v-1v-1v-1M17,12h-1M6,3v-1h-1M3,2h-1M1,17h-1h-1M7,19h1h1M14,18v1h1v-1M15,19h1v1h-1h-1v1h-1M13,22h-1M9,23v-1v-1M11,21v-1M0,25h-1h-1M-1,25v-1M-4,23v-1v-1M-10,23v-1h-1h-1v-1h-1h-1M-13,21v1M-12,21v-1v-1M-15,25h-1h-1M-15,15h1v-1M-11,17v-1M-13,11v-1v-1v-1v-1h-1v-1h1M-14,7v1v1v1v1v1h-1h-1M-12,12v1v1" transform="scale(6.117)" fill="none" stroke="#ccdbf0" stroke-width="0.674" stroke-linecap="square" stroke-linejoin="miter"></path><path d="M0,0v1h1v1h-1v1h-1v1v1h-1v-1v-1h-1v-1h-1v-1v-1h1h1v1h-1M-2,1v1h1v-1v-1M-2,0v-1h-1h-1h-1h-1v1h-1v-1v-1v-1v-1v-1v-1v-1h-1h-1v1h1v1v1h-1h-1h-1v1v1v1h1v1h1v-1h1v-1h-1v-1h1M-9,-3h-1v1M-8,-1v1v1h-1h-1v1h1v1h-1v1h-1v1h1v1h1v-1h1v1h1v1v1h-1v-1h-1h-1v1h-1v1v1h-1v-1v-1v-1h1v-1h-1v-1h-1h-1h-1h-1v1h1v1h-1v1h1v1v1v1h-1h-1v1v1h1v1h1v-1h1h1v1v1v1h1v-1h1v-1v-1v-1h-1h-1v-1h1h1h1v-1v-1h1v-1M-9,9v1v1v1h-1v1v1v1v1h1v1v1v1v1h1v1v1h-1v-1h-1h-1v-1v-1h1v1M-10,19v-1v-1h-1v1h-1v-1h-1v1v1v1h-1v-1h-1h-1v-1v-1h1h1v1h-1M-14,17v-1h-1v-1h-1v1h-1v-1v-1M-17,16v1v1v1v1h1h1v1v1h1v1h-1h-1v-1h-1v-1h1M-17,22v1v1h1h1v1h1v-1h1v-1h1h1h1h1h1v1h1v1h-1h-1v-1h-1v1h-1v-1h-1v1h-1M-7,25h1h1v-1h-1v-1h1v-1v-1h-1v1h-1v1M-7,22v-1v-1v-1v-1h1h1h1v1h-1h-1v1h1h1h1v1v1v1h-1v1v1h1v-1h1v-1v-1v-1v-1h1v1v1v1h1v1v1h1h1h1h1h1v-1h1h1v1h-1M7,25h1v-1v-1v-1v-1v-1h1h1v-1v-1h1v1h1h1v1h-1v1h-1h-1v1h1v1h-1h-1v1v1h1v-1h1v1h1v-1v-1h1v-1h1v1v1h-1v1h1h1v-1h1v1h1v-1v-1h-1v-1h-1v1M15,22v-1h1h1v1M17,21v-1v-1v-1h-1v-1v-1h-1v1h-1v1h-1v-1h-1v1M12,17h-1v-1h-1v1h-1v1h-1v-1h-1v1v1v1h-1v1h-1h-1v1v1h1v-1h1h1v-1M7,22v1h-1M4,23v1h-1h-1v-1h1v-1v-1h-1h-1h-1v1h1v1v1M1,22h1M0,21v-1v-1v-1h-1v1h-1h-1v-1h1v-1v-1h1h1h1v1h1v-1h1v-1v-1v-1h1h1v1h1v-1v-1v-1h1h1v-1h-1h-1h-1v1v1h-1v-1v-1v-1h-1h-1v1v1v1h1v-1v-1M2,12v1v1h-1h-1v-1v-1h-1v-1v-1h1h1v1v1v1M1,11h-1M1,10v-1h-1v-1h1v-1h1v-1v-1h1v-1h-1v-1h-1v1v1v1h-1v-1v-1M0,6h-1h-1h-1v-1v-1h-1h-1v-1v-1h-1v-1h1v-1M-6,1h-1v1v1h1v1v1v1h1v-1h1v1v1h-1h-1v1v1h1v-1h1h1h1v-1h-1M-2,7h1v1v1h-1h-1h-1v1h1v1h-1h-1v1h1v1v1h-1v-1h-1h-1h-1v1h1h1v1h1h1v1h-1h-1v1h1h1h1v-1v-1v-1v-1v-1h1v-1v-1M-2,12v1h1v1h-1v1h1h1h1h1M-6,17h-1h-1v1v1M-8,17v-1h1v-1h-1h-1v-1v-1M-8,13v-1v-1h1v-1h1h1M-6,10v1v1h-1M-7,10h-1v-1h1M-1,7h1M-6,5h-1v-1h-1v-1v-1M-8,4h-1M-5,3h1M2,3h1v-1h1v1h1h1v1h-1h-1v1h1h1v1h-1v1h1v1h-1h-1v-1h-1v1h-1M3,7v-1h1M5,8v1h1h1v-1h1h1h1h1v1v1h1v-1h1h1v1h1v-1v-1h1v1h1v-1v-1v-1v-1v-1h-1h-1v-1v-1h-1h-1v1v1v1h1v-1v-1M14,5v1h-1h-1v1h-1h-1v-1h1v-1h-1h-1M11,5h1v-1v-1v-1v-1h1h1h1h1v-1h-1h-1h-1v-1v-1v-1h-1v1h-1v1v1h1v-1M11,-2v-1M12,-3v-1h1h1v1h1v-1h1h1v-1v-1v-1v-1v-1h-1v-1h1M17,-4v1h-1v1h-1v1h-1v-1M15,-1h1h1v1v1v1v1h-1v-1M17,-1v-1M12,7h1v1h-1M13,8h1v-1h1h1v-1h-1v-1h1M17,9v1h-1v1h-1v1v1h1v1v1h-1h-1v1h-1h-1v-1v-1h1v-1h-1v-1v-1h-1v1h-1v1h1v1h-1v1h-1v-1h-1h-1v-1h1v-1h1v1M9,12v-1h1v-1v-1h-1h-1M9,9v1M8,12h-1M7,14v1h-1h-1v1h-1v-1v-1M4,16v1h1v1h1v-1v-1h1h1v-1M8,16h1M6,18v1h-1h-1v-1h-1v-1M3,18h-1v1h1v1h-1h-1v-1v-1M3,20h1h1M10,15h1M12,11h1v-1M13,11h1v1v1v1h1M14,12h-1M13,14v1M16,15h1v1v1M17,15v-1v-1v-1v-1M17,12h-1M6,3v-1h-1M3,2h-1M1,17h-1h-1M7,19h1h1M14,18v1h1v-1M15,19h1v1h-1h-1v1h-1M13,22h-1M9,23v-1v-1M11,21v-1M0,25h-1h-1M-1,25v-1M-4,23v-1v-1M-10,23v-1h-1h-1v-1h-1h-1M-13,21v1M-12,21v-1v-1M-15,25h-1h-1M-15,15h1v-1M-11,17v-1M-13,11v-1v-1v-1v-1h-1v-1h1M-14,7v1v1v1v1v1h-1h-1M-12,12v1v1" transform="scale(6.117)rotate(180)" fill="none" stroke="#ccdbf0" stroke-width="0.674" stroke-linecap="square" stroke-linejoin="miter"></path></svg>